PathFileType	4	(X/Y/Z)	C:\Users\Basilio\Documents\Thesis Gigler\squatting_fais\c3dfiles\041\SLS_pre_front5\markers_experimental.trc
DataRate	CameraRate	NumFrames	NumMarkers	Units	OrigDataRate	OrigDataStartFrame	OrigNumFrames
200.000000	200.000000	4	62	mm	200.000000	0	1289
Frame#	Time	FHD			LBHD			RBHD			C7			T10			CLAV			LSHO			LUUPA			LMUPA			LDUPA			LLEP			LMEP			LRAD			LUL			LRFIN			RSHO			RUPA1			RMUPA			RDUPA			RLEP			RMEP			RRAD			RUL			RUFIN			LASI			RASI			USACR			LSACR			RSACR			LTHI1			LTHI2			LTHI3			LTHI4			LLFC			LMFC			LTIB1			LTIB2			LTIB3			LTIB4			LLMAL			LMMAL			LHEE			LMT1			LMT2			LMT5			RTHI			RTHI2			RTHI3			RTHI4			RLFC			RMFC			RTIB1			RTIB2			RTIB3			RTIB4			RLMAL			RMMAL			RHEE			RMT1			RMT2			RMT5			*61			
		X1	Y1	Z1	X2	Y2	Z2	X3	Y3	Z3	X4	Y4	Z4	X5	Y5	Z5	X6	Y6	Z6	X7	Y7	Z7	X8	Y8	Z8	X9	Y9	Z9	X10	Y10	Z10	X11	Y11	Z11	X12	Y12	Z12	X13	Y13	Z13	X14	Y14	Z14	X15	Y15	Z15	X16	Y16	Z16	X17	Y17	Z17	X18	Y18	Z18	X19	Y19	Z19	X20	Y20	Z20	X21	Y21	Z21	X22	Y22	Z22	X23	Y23	Z23	X24	Y24	Z24	X25	Y25	Z25	X26	Y26	Z26	X27	Y27	Z27	X28	Y28	Z28	X29	Y29	Z29	X30	Y30	Z30	X31	Y31	Z31	X32	Y32	Z32	X33	Y33	Z33	X34	Y34	Z34	X35	Y35	Z35	X36	Y36	Z36	X37	Y37	Z37	X38	Y38	Z38	X39	Y39	Z39	X40	Y40	Z40	X41	Y41	Z41	X42	Y42	Z42	X43	Y43	Z43	X44	Y44	Z44	X45	Y45	Z45	X46	Y46	Z46	X47	Y47	Z47	X48	Y48	Z48	X49	Y49	Z49	X50	Y50	Z50	X51	Y51	Z51	X52	Y52	Z52	X53	Y53	Z53	X54	Y54	Z54	X55	Y55	Z55	X56	Y56	Z56	X57	Y57	Z57	X58	Y58	Z58	X59	Y59	Z59	X60	Y60	Z60	X61	Y61	Z61	X62	Y62	Z62	

1	0	-160.89794921875	1744.46630859375	-990.9445800781252	-325.8823547363282	1718.015869140625	-1106.969360351563	-340.7960205078126	1720.446533203125	-953.981384277344	-407.9819335937501	1565.932861328125	-1040.218872070313	-451.5623779296876	1248.41162109375	-1009.678344726563	-255.7427368164063	1492.425903320313	-1024.37890625	-323.9911193847657	1533.419311523438	-1205.158569335938	-351.3291625976563	1333.32763671875	-1277.411010742188	-315.2144165039063	1303.225219726563	-1263.49267578125	-357.9223632812501	1264.690795898438	-1286.76611328125	-362.9463195800782	1215.501953125	-1285.126220703125	-373.0259094238282	1187.44384765625	-1202.75634765625	-223.7310791015626	976.6004638671877	-1261.082397460938	-287.9741210937501	963.099060058594	-1296.22802734375	-189.5241241455078	918.5352783203127	-1298.762939453125	-334.6752624511719	1556.963500976563	-863.787292480469	-416.405975341797	1362.465454101563	-759.8275146484376	-368.5356750488282	1347.010864257813	-754.8375854492189	-397.7207946777345	1297.812133789063	-738.7294921875001	-395.4824523925782	1253.857788085938	-727.9880981445314	-415.4347534179689	1223.4833984375	-811.4854736328127	-278.2864685058594	1014.190612792969	-750.5109863281251	-337.9143066406251	1004.716796875	-703.4497070312501	-242.9098358154297	947.792907714844	-726.6642456054689	-270.1108093261719	1057.556030273438	-1100.017700195313	-293.3873901367188	1060.9501953125	-872.806091308594	-459.2250061035157	1129.924682617188	-1004.421142578125	-471.0074157714845	1103.166748046875	-1031.063720703125	-480.1600952148439	1104.367065429688	-977.8831787109377	-373.1966247558594	848.4708251953127	-1166.771240234375	-334.3651428222657	773.1820068359377	-1157.906127929688	-287.4985046386719	779.8660278320315	-1147.435668945313	-359.3979797363282	719.2835693359376	-1148.984497070313	-336.6300048828126	539.2250976562501	-1128.454711914063	-339.9061279296876	523.4312133789064	-1007.968017578125	-312.4295349121094	348.3553771972657	-1064.844970703125	-355.4625854492188	303.5077819824219	-1130.506103515625	-319.3144531250001	300.4473876953126	-1101.331665039063	-324.6448974609376	224.8572845458985	-1066.561889648438	-382.9056701660157	130.7834014892578	-1107.159423828125	-346.5763244628907	136.9017944335938	-1025.755615234375	-447.9348144531251	116.2676467895508	-1063.92431640625	-240.768295288086	63.76962661743165	-1040.341674804688	-236.0048980712891	57.95243453979494	-1085.421875	-284.1783447265626	43.6853370666504	-1138.309326171875	-386.5922241210939	798.2417602539065	-793.543395996094	-342.1223449707032	749.7393798828126	-784.1697998046877	-309.4112854003907	755.4113769531251	-787.023132324219	-358.0538024902344	667.1893310546876	-793.9907226562502	-336.7140197753907	546.5303955078126	-778.9361572265627	-317.8230895996094	517.9604492187501	-893.7701416015627	-310.4746704101563	377.2630004882813	-772.8147583007815	-399.3466796875001	311.1096191406251	-749.7194824218751	-352.7804260253907	303.9065551757813	-751.2764892578126	-334.8089294433594	251.4309387207032	-774.272399902344	-399.4678344726564	141.2542114257813	-747.0228271484376	-371.1513671875001	150.7896728515625	-828.8425292968752	-464.0338134765626	121.4459991455078	-793.4627075195315	-257.7749023437501	65.78446197509767	-815.9831542968752	-248.0240478515626	68.4416961669922	-764.4947509765626	-294.3850097656251	54.96212005615236	-715.6672363281251	-4216.593261718751	853.098815917969	-3944.715087890626	
2	0.005	-160.3778686523438	1744.22509765625	-989.9754638671877	-325.5789794921876	1718.183715820313	-1105.717407226563	-340.3419494628907	1720.618408203125	-952.6152954101565	-407.9006652832032	1566.0654296875	-1039.056274414063	-451.4881896972657	1248.47265625	-1008.867126464844	-255.8982391357422	1492.255615234375	-1023.209350585938	-323.8772583007813	1533.7236328125	-1204.0302734375	-351.1957702636719	1333.646484375	-1276.387573242188	-315.1004638671876	1303.555541992188	-1262.477661132813	-357.8541564941407	1264.949829101563	-1285.767333984375	-362.8871459960938	1215.843017578125	-1284.038330078125	-373.4613342285157	1187.793090820313	-1201.832885742188	-223.1653137207032	976.6282348632815	-1259.072143554688	-287.5681762695313	963.4724731445315	-1294.9970703125	-189.0529022216797	919.0845336914065	-1297.595458984375	-334.6673278808594	1556.934936523438	-862.6549072265627	-416.2001037597657	1362.40283203125	-758.8339233398439	-368.5448303222657	1346.845336914063	-754.1478881835939	-397.6457824707032	1297.725341796875	-737.6176147460939	-395.6726074218751	1253.739990234375	-726.4576416015626	-415.3515014648439	1223.43115234375	-810.6447753906252	-278.8110961914063	1013.92236328125	-749.5803222656251	-338.2914733886719	1004.568176269531	-702.5006103515626	-243.6808471679688	947.495788574219	-725.6863403320314	-270.4595336914063	1057.925903320313	-1099.4287109375	-293.0861511230469	1061.001098632813	-872.1453857421877	-459.0690917968751	1130.034301757813	-1003.501098632813	-470.8402709960939	1103.02197265625	-1030.286010742188	-479.141571044922	1104.757568359375	-976.7841796875002	-373.3042907714844	848.5480957031252	-1166.059448242188	-334.4050292968751	773.2742919921877	-1157.429809570313	-287.4475402832032	779.9050903320315	-1146.73046875	-359.4071044921876	719.3004760742189	-1148.331909179688	-336.6485900878907	539.3419189453126	-1127.949462890625	-339.9123840332032	523.4044189453126	-1007.483154296875	-312.3607788085938	348.4238891601563	-1064.5673828125	-355.4888916015626	303.6329650878907	-1130.224365234375	-319.2880859375001	300.5205688476563	-1101.112060546875	-324.6430053710938	224.8939361572266	-1066.457763671875	-382.9380187988282	130.8777618408203	-1107.059692382813	-346.5905456542969	136.9320678710938	-1025.712768554688	-447.9454345703126	116.274154663086	-1063.901123046875	-240.7856445312501	63.75022125244142	-1040.275634765625	-235.9459381103516	57.9194793701172	-1085.426025390625	-285.0246887207032	44.22458648681641	-1138.520629882813	-386.3358154296876	798.325378417969	-792.8339843750002	-341.9869384765626	749.7908325195314	-783.5179443359377	-309.2620239257813	755.4290161132814	-786.507263183594	-357.9537048339844	667.3161621093751	-793.2717895507815	-336.6735839843751	546.3810424804689	-778.5464477539065	-318.1833496093751	517.8847656250001	-893.4050292968752	-310.3878173828126	377.1280822753907	-772.6308593750002	-398.916717529297	310.8666381835938	-749.5448608398439	-352.5903625488282	303.7036132812501	-750.9761962890626	-334.6782836914063	251.2135162353516	-774.1885375976565	-399.3873901367189	141.0470733642578	-746.8517456054689	-371.1044006347657	150.7055358886719	-828.6943359375002	-463.9803161621095	121.3825225830078	-793.3221435546877	-257.7184753417969	65.75432586669923	-815.844177246094	-247.9703826904297	68.39525604248048	-764.3110961914064	-294.4800109863282	54.80581665039064	-715.5085449218751	-4216.651855468751	853.0950927734377	-3944.856201171876	
3	0.01	-159.803451538086	1743.7880859375	-988.7358398437502	-325.1885681152344	1718.352172851563	-1104.510375976563	-339.8664245605469	1720.743774414063	-951.2471313476565	-407.7993164062501	1566.144775390625	-1037.842895507813	-451.3495483398439	1248.48046875	-1007.911682128906	-255.7727966308594	1492.397094726563	-1022.046691894531	-323.6668701171876	1534.018432617188	-1202.868041992188	-351.0925903320313	1333.9345703125	-1275.36376953125	-315.1026611328126	1303.824340820313	-1261.587280273438	-357.9025268554688	1265.283203125	-1284.684448242188	-362.9051208496094	1216.09814453125	-1283.085083007813	-373.3009643554688	1188.111572265625	-1200.83251953125	-222.7977142333985	977.4826660156252	-1258.700561523438	-287.3068542480469	963.8081054687502	-1293.839111328125	-188.6446990966797	919.6181640625002	-1296.381103515625	-334.6629028320313	1556.905029296875	-861.4903564453127	-416.060028076172	1362.351440429688	-757.8046264648439	-368.3264770507813	1346.880249023438	-752.8918457031251	-397.5818176269532	1297.631103515625	-736.6107788085939	-395.4910583496095	1253.574340820313	-725.7891235351564	-415.3378295898439	1223.424438476563	-809.7246093750002	-279.0541687011719	1013.650329589844	-748.6433715820314	-338.7271728515626	1004.361145019531	-701.7642211914064	-244.2406158447266	947.0963134765627	-724.7588500976564	-270.1163940429688	1057.703735351563	-1098.544921875	-292.8362731933594	1061.08349609375	-871.401794433594	-458.8195800781251	1129.852783203125	-1002.535705566406	-470.7224121093751	1103.061645507813	-1029.490356445313	-479.0655212402345	1104.799438476563	-975.9138183593752	-373.2639160156251	848.6325683593752	-1165.39892578125	-334.4035644531251	773.348083496094	-1156.719360351563	-287.3141784667969	779.651062011719	-1145.722290039063	-359.5070495605469	719.3986206054689	-1147.76123046875	-336.7019042968751	539.4379272460939	-1127.42822265625	-339.9536437988282	523.3544311523439	-1007.027465820313	-312.2866821289063	348.5000915527344	-1064.334228515625	-355.5244140625001	303.7670898437501	-1130.016479492188	-319.3110046386719	300.6291198730469	-1100.930786132813	-324.6438598632813	224.9369049072266	-1066.349975585938	-382.9400634765626	130.9375457763672	-1106.96240234375	-346.5921936035157	136.946029663086	-1025.609985351563	-447.938201904297	116.3226623535157	-1063.884887695313	-240.7358398437501	63.74668121337892	-1040.30859375	-236.0048980712891	57.95243453979494	-1085.421875	-284.5475463867188	43.29678344726563	-1137.51220703125	-386.1802062988282	798.3387451171877	-792.1807250976565	-341.8731384277344	749.8343505859376	-782.9190063476565	-309.1478881835938	755.4092407226564	-786.0041503906252	-358.0827331542969	667.3460693359376	-792.3977050781252	-336.6863098144532	546.1403808593751	-778.0572509765627	-318.6297302246094	517.7397460937501	-892.951354980469	-310.2875366210938	376.9386291503907	-772.4763183593752	-398.6998901367189	310.5936279296876	-749.1304931640626	-352.3971252441407	303.5282592773438	-750.6613769531251	-334.5111999511719	251.0685424804688	-774.075378417969	-399.3291015625001	140.8472137451172	-746.6444702148439	-371.0529785156251	150.6365966796875	-828.5496215820315	-463.927215576172	121.3283767700196	-793.1963500976565	-257.6933288574219	65.70679473876955	-815.7562255859377	-247.9685058593751	68.34336090087892	-764.1505737304689	-294.4844970703126	54.71661376953126	-715.3464355468751	-4216.593261718751	853.098815917969	-3944.715087890626	
4	0.015	-159.2429962158203	1743.342041015625	-987.8505859375002	-324.9781494140626	1718.556884765625	-1103.117797851563	-339.3277282714844	1721.07080078125	-950.023864746094	-407.7423095703126	1566.24853515625	-1036.73681640625	-451.247039794922	1248.546264648438	-1007.009216308594	-255.7405242919922	1492.726806640625	-1021.226928710938	-323.5821838378907	1534.280151367188	-1201.761596679688	-351.1059570312501	1334.227661132813	-1274.302734375	-315.0774230957032	1304.150512695313	-1260.463623046875	-357.8811645507813	1265.60107421875	-1283.70166015625	-362.8351745605469	1216.359619140625	-1282.107421875	-373.0323791503907	1188.295654296875	-1199.714721679688	-222.7670898437501	977.9739990234377	-1257.466674804688	-286.8591918945313	964.1434326171877	-1292.649536132813	-188.1703186035157	920.0227050781252	-1295.052001953125	-334.6716003417969	1556.914916992188	-860.3135375976565	-415.9869384765626	1362.278564453125	-756.6688842773439	-368.1482849121094	1346.8232421875	-751.9197998046876	-397.4280700683595	1297.5087890625	-735.7254028320314	-395.1988525390626	1253.602661132813	-725.4656982421876	-415.3637084960939	1223.377685546875	-808.8400878906252	-279.4510498046876	1013.390930175781	-747.6921386718751	-338.9325866699219	1004.161254882813	-700.7296752929689	-244.5579986572266	946.634216308594	-724.0825195312501	-270.0435180664063	1057.714721679688	-1097.596313476563	-292.6063842773438	1061.082885742188	-870.4788818359377	-458.8126831054689	1129.962036132813	-1001.552551269531	-470.6379699707032	1103.1357421875	-1028.604858398438	-478.9490661621095	1104.738403320313	-975.0530395507815	-373.2251892089844	848.7047119140627	-1164.79931640625	-334.4408569335938	773.3293457031252	-1156.007202148438	-287.7690429687501	780.104675292969	-1145.519165039063	-359.4929199218751	719.4674072265626	-1147.187377929688	-336.8036804199219	539.5202636718751	-1126.922119140625	-339.8473205566407	523.3397827148439	-1006.482788085938	-312.2663574218751	348.5246887207032	-1064.132568359375	-355.5538635253907	303.9158020019532	-1129.775756835938	-319.2723083496094	300.7395019531251	-1100.749877929688	-324.6585083007813	225.0385894775391	-1066.278442382813	-382.9839477539063	131.0387115478516	-1106.92529296875	-346.5838623046876	136.9418334960938	-1025.559448242188	-448.0039672851564	116.3662338256836	-1063.826416015625	-240.7814483642579	63.75304031372072	-1040.281616210938	-236.0005035400391	57.9552574157715	-1085.374267578125	-285.5929260253907	44.01020431518555	-1137.783203125	-386.0109252929689	798.3842773437502	-791.3542480468752	-341.7515563964844	749.7941894531251	-782.2701416015627	-309.0314025878907	755.3355712890626	-785.4761962890627	-358.0862731933594	667.1924438476564	-791.427429199219	-336.7300720214844	545.9683837890626	-777.563659667969	-318.9503173828126	517.6333007812501	-892.561218261719	-310.2043457031251	376.8294067382813	-772.2678222656252	-398.6259765625001	310.4560241699219	-748.7241821289064	-352.2653808593751	303.4274902343751	-750.2946777343751	-334.4378051757813	250.9447174072266	-773.909851074219	-399.3114624023439	140.682601928711	-746.4183349609376	-371.0782775878907	150.5231018066407	-828.3908691406252	-463.9068298339845	121.2864151000977	-793.1083984375002	-257.6184997558594	65.69683837890626	-815.6569824218752	-247.9116668701172	68.3057098388672	-764.0675048828126	-294.4493408203126	54.66104125976564	-715.2045898437501	-4216.675781250001	853.0911865234377	-3944.701416015626	
